Patient4_TMGait_0pt7_01_left_36_EMG.mot
version=1
nRows=17
nColumns=33
inDegrees=no
endheader
time	1LAddLong	2LGlutMax	3LGlutMed	4LIliopsoas	5LSemiMemb	6LBicFemLong	7LRecFem	8LVastMed	9LVastLat	10LGasMed	11LTibAnt	12lTibPost	13LPeroneusLong	14LSol	15LExtDigLong	16LFlexDigLong	17RAddLong	18RGlutMax	19RGlutMed	20RIliopsoas	21RSemiMemb	22RBicFemLong	23RRecFem	24RVastMed	25RVastLat	26RGasMed	27RTibAnt	28RTibPost	29RPeroneusLong	30RSol	31RExtDigLong	32RFlexDigLong
41.975	0.032654	1.1394	-0.086517	0.02121	0.15137	-0.39398	0.63202	-0.00473	0.001678	0.39063	-0.04425	-0.028076	0.040436	-1.0524	-0.070496	0.028381	-0.038605	-0.081329	0.15015	0.19516	-0.21515	-0.18158	0.44601	-0.42129	0.031281	-0.011597	-0.000305	0.32181	0.007477	-0.39673	0.000305	-0.003052
41.976	0.031586	1.1607	-0.1001	0.010986	0.12848	-0.063934	0.87326	-0.03006	-0.2243	0.70038	0.023346	-0.007477	0.16617	-0.91888	-0.076752	0.000458	-0.064545	-0.10819	0.090637	0.21072	-0.22293	-0.083313	0.42648	-0.35126	0.050812	0.001526	0.028687	0.16693	-0.15427	-0.70801	0.000305	0.001678
41.977	0.030518	1.2103	-0.087891	-0.003204	0.011292	0.24902	1.0168	-0.016785	-0.52887	0.60318	0.017242	0.028992	0.096893	-0.52704	-0.053558	0.030518	-0.11261	-0.1178	0.10727	0.17731	-0.14481	-0.012817	0.4097	-0.25284	0.073242	0.002594	0.039673	0.047302	-0.25497	-0.78033	0.001373	-0.006866
41.978	0.035706	1.219	-0.18631	-0.001984	-0.090332	0.2507	1.078	-0.002594	-0.66254	0.10468	0.022278	0.036774	0.26276	-0.3688	-0.079041	0.01358	-0.088806	-0.13123	0.050812	0.076752	-0.13168	0.069275	0.37109	-0.19455	0.073395	-0.018921	0.021973	0.022888	-0.22339	-0.65842	-0.004272	-0.002594
41.979	0.048828	1.2523	-0.1799	0.022888	-0.10742	0.24704	1.0591	0.019073	-0.57602	-0.012054	0.045624	-0.008698	0.4303	-0.11231	0.00885	-0.007172	-0.044403	-0.12695	0.075226	0.084229	-0.054932	0.30823	0.39139	-0.075684	0.088501	-0.031738	0.091705	0.01709	-0.17197	-0.7605	-0.003357	-0.001526
41.98	0.041046	1.2505	-0.076447	0.011139	-0.1004	0.19058	1.1267	0.00824	-0.42862	0.018921	0.095215	-0.041504	-0.24399	0.15381	0.050964	-0.052032	0.015564	-0.12543	-0.001221	0.13229	0.059814	0.30197	0.40619	-0.01297	0.098724	-0.028076	0.34668	-0.006561	-0.15854	-0.066986	-0.00412	-0.000305
41.981	0.037537	1.3393	-0.024872	0.005341	-0.095215	0.09491	1.1783	0.000763	-0.2504	-0.23758	0.12466	0	-0.24979	-0.002747	-0.000916	-0.052032	0.082245	-0.13886	-0.10498	0.076752	0.067291	0.13168	0.44174	0.02533	0.097656	-0.023193	0.95886	-0.19775	-0.20966	0.26749	-0.005188	0.000305
41.982	0.03891	1.3638	-0.11902	0.002289	-0.029449	0.20233	1.0777	0.011749	-0.007477	-0.19012	0.018768	0.024261	1.4148	0.014343	0.082092	0.075989	0.14923	-0.16403	-0.12985	0.066986	0.088501	0.11932	0.3537	0.1471	0.079956	-0.01297	0.88852	-0.15121	-0.27084	0.59708	-0.001678	-0.009155
41.983	0.029755	1.407	-0.062103	0.010376	-0.052032	0.30151	0.89569	0.011292	0.069733	-0.020294	-0.011292	0.036469	0.15076	0.45441	0.32867	0.13534	0.14938	-0.2385	-0.18463	0.040131	0.15625	0.23254	0.29205	0.15747	0.092316	-0.014191	-0.011902	0.10544	-0.15793	0.45227	-0.003815	-0.00946
41.984	0.027618	1.4612	0.004272	0.004425	-0.090027	0.20432	0.75714	0	0.10147	0.086517	0.020142	0.025024	-0.97946	0.36621	0.22369	-0.00351	0.15274	-0.20325	-0.22949	-0.002136	0.18585	0.31113	0.27023	0.17853	0.06073	0.007324	-1.0295	0.13672	0.083466	-0.15747	-0.002747	-0.000153
41.985	0.01709	1.5048	0.003204	-0.024414	-0.085602	0.29617	0.62454	-0.014343	0.087891	-0.65338	-0.007019	0.016327	-0.75928	-0.13001	-0.15472	-0.002747	0.072632	-0.18936	-0.13107	-0.033722	0.12146	0.29694	0.26871	0.1506	0.032806	0.027618	-1.2419	0.061798	0.38116	-0.49271	-0.007629	0.001831
41.986	0.006409	1.4957	-0.021362	0.003662	-0.06546	0.37293	0.53757	-0.001373	0.037689	-1.0052	-0.021515	0.020599	0.22614	-0.38849	-0.31586	0.020447	0.016937	-0.22064	-0.17502	-0.033417	0.076599	0.1886	0.28046	0.067444	0.00885	0.033569	-0.94711	0.019379	0.34927	-0.49255	-0.005493	0.000763
41.987	0.011597	1.3972	-0.08255	0.031281	-0.076599	0.25406	0.39871	-0.000153	0.017853	-0.63858	-0.028687	0.03006	-0.699	-0.32089	-0.14358	0.021515	-0.041199	-0.24246	-0.096893	-0.051727	0.035553	0.10284	0.26672	0.04364	-0.015106	0.033722	-0.401	-0.005493	0.21362	-0.43366	-0.005341	-0.003052
41.988	0.004425	1.4272	-0.12039	0.009766	-0.086975	0.15335	0.31998	-0.001221	-0.005798	-0.25497	0.001984	0.041504	-0.84259	-0.056152	0.16022	0.033264	-0.042419	-0.28076	-0.07782	-0.079193	0.014038	0.052338	0.27008	0.011749	-0.019379	0.015869	0.25696	-0.010223	-0.02533	0.004272	-0.002136	-0.011749
41.989	0.00473	1.3673	-0.11734	0.016022	-0.080719	0.3157	0.22018	-0.000458	0.016327	-0.10269	-0.038757	0.031128	0.78842	0.043182	0.12253	0.055695	-0.027771	-0.3067	-0.22629	-0.087891	-0.007324	0.033417	0.29816	-0.022278	-0.01709	0.007629	0.070343	-0.010834	-0.33463	0.090485	0.001373	-0.013123
41.99	-0.011749	1.2378	-0.026398	0.018921	-0.095062	0.40985	0.11429	-0.002441	0.15732	-0.075378	-0.017395	0.026855	1.1308	0.028076	-0.039978	0.024567	0.008087	-0.28458	0.036163	-0.17197	-0.026245	0.015869	0.29755	-0.063477	-0.024872	0.01236	-0.009308	-0.015411	-0.2858	0.10147	-0.002289	-0.014496
41.991	-0.015564	1.1635	0.022125	0.02533	-0.13214	0.55847	0.013733	-0.002747	0.2652	0.02655	0.023346	0.025635	0.34103	-0.029144	-0.16754	0.009308	0.013733	-0.24963	0.096741	-0.0914	-0.044403	0.016479	0.30472	-0.06134	-0.016479	0.012512	-0.05249	-0.023193	-0.42847	0.09079	0.001831	-0.015717
